<mxfile host="app.diagrams.net" modified="2022-04-24T11:14:14.028Z" agent="5.0 (X11)" etag="eEQJD1o8bWeWNlvoRRrb" version="17.4.6" type="github" pages="2">
  <diagram id="h4_t9WN8d6oGa0KlBMpo" name="Page-1">
    <mxGraphModel dx="519" dy="346" grid="1" gridSize="10" guides="1" tooltips="1" connect="1" arrows="1" fold="1" page="1" pageScale="1" pageWidth="1700" pageHeight="1100" math="0" shadow="0">
      <root>
        <mxCell id="0" />
        <mxCell id="1" parent="0" />
        <mxCell id="RwGLCUNjGL6h3Wpxjeg6-1" value="&lt;b&gt;&lt;font style=&quot;font-size: 28px&quot;&gt;In(1) , In(2), In(3)....................In(n)&lt;br&gt;&lt;/font&gt;&lt;/b&gt;" style="rounded=1;whiteSpace=wrap;html=1;fillColor=#534361;fontColor=#ffffff;strokeColor=#432D57;strokeWidth=2;" parent="1" vertex="1">
          <mxGeometry x="320" y="180" width="590" height="90" as="geometry" />
        </mxCell>
        <mxCell id="RwGLCUNjGL6h3Wpxjeg6-2" value="&lt;div&gt;&lt;font style=&quot;font-size: 28px&quot;&gt;&lt;b&gt;O(1), O(2), O(3)....................O(n)&lt;br&gt;&lt;/b&gt;&lt;/font&gt;&lt;/div&gt;" style="rounded=1;whiteSpace=wrap;html=1;fillColor=#534361;fontColor=#ffffff;strokeColor=#432D57;strokeWidth=2;" parent="1" vertex="1">
          <mxGeometry x="320" y="640" width="590" height="90" as="geometry" />
        </mxCell>
        <mxCell id="RwGLCUNjGL6h3Wpxjeg6-4" value="&lt;font style=&quot;font-size: 36px&quot;&gt;&lt;b&gt;States Of Automata&lt;/b&gt;&lt;/font&gt;" style="rounded=0;whiteSpace=wrap;html=1;fontSize=28;fillColor=#000066;fontColor=#ffffff;strokeColor=#432D57;strokeWidth=2;" parent="1" vertex="1">
          <mxGeometry x="405" y="350" width="420" height="210" as="geometry" />
        </mxCell>
        <mxCell id="RwGLCUNjGL6h3Wpxjeg6-6" value="" style="endArrow=classic;html=1;rounded=0;fontSize=36;exitX=0.5;exitY=1;exitDx=0;exitDy=0;entryX=0.5;entryY=0;entryDx=0;entryDy=0;fillColor=#76608a;strokeColor=#432D57;strokeWidth=2;" parent="1" source="RwGLCUNjGL6h3Wpxjeg6-1" target="RwGLCUNjGL6h3Wpxjeg6-4" edge="1">
          <mxGeometry width="50" height="50" relative="1" as="geometry">
            <mxPoint x="780" y="510" as="sourcePoint" />
            <mxPoint x="830" y="460" as="targetPoint" />
          </mxGeometry>
        </mxCell>
        <mxCell id="RwGLCUNjGL6h3Wpxjeg6-7" value="" style="endArrow=classic;html=1;rounded=0;fontSize=36;exitX=0.5;exitY=1;exitDx=0;exitDy=0;entryX=0.5;entryY=0;entryDx=0;entryDy=0;fillColor=#76608a;strokeColor=#432D57;strokeWidth=2;" parent="1" source="RwGLCUNjGL6h3Wpxjeg6-4" target="RwGLCUNjGL6h3Wpxjeg6-2" edge="1">
          <mxGeometry width="50" height="50" relative="1" as="geometry">
            <mxPoint x="780" y="510" as="sourcePoint" />
            <mxPoint x="830" y="460" as="targetPoint" />
          </mxGeometry>
        </mxCell>
        <mxCell id="RwGLCUNjGL6h3Wpxjeg6-8" value="Output" style="rounded=0;whiteSpace=wrap;html=1;fontSize=36;fillColor=#000066;fontColor=#ffffff;strokeColor=#432D57;strokeWidth=2;" parent="1" vertex="1">
          <mxGeometry x="1040" y="655" width="160" height="65" as="geometry" />
        </mxCell>
        <mxCell id="RwGLCUNjGL6h3Wpxjeg6-9" value="Input" style="rounded=0;whiteSpace=wrap;html=1;fontSize=36;fillColor=#000066;fontColor=#ffffff;strokeColor=#432D57;strokeWidth=2;" parent="1" vertex="1">
          <mxGeometry x="1020" y="195" width="180" height="60" as="geometry" />
        </mxCell>
        <mxCell id="RwGLCUNjGL6h3Wpxjeg6-10" value="" style="endArrow=classic;html=1;rounded=0;fontSize=36;exitX=0;exitY=0.5;exitDx=0;exitDy=0;fillColor=#76608a;strokeColor=#432D57;strokeWidth=2;" parent="1" source="RwGLCUNjGL6h3Wpxjeg6-9" edge="1">
          <mxGeometry width="50" height="50" relative="1" as="geometry">
            <mxPoint x="950" y="450" as="sourcePoint" />
            <mxPoint x="930" y="225" as="targetPoint" />
          </mxGeometry>
        </mxCell>
        <mxCell id="RwGLCUNjGL6h3Wpxjeg6-11" value="" style="endArrow=classic;html=1;rounded=0;fontSize=36;exitX=0;exitY=0.5;exitDx=0;exitDy=0;fillColor=#76608a;strokeColor=#432D57;strokeWidth=2;" parent="1" source="RwGLCUNjGL6h3Wpxjeg6-8" edge="1">
          <mxGeometry width="50" height="50" relative="1" as="geometry">
            <mxPoint x="960" y="680" as="sourcePoint" />
            <mxPoint x="940" y="688" as="targetPoint" />
          </mxGeometry>
        </mxCell>
      </root>
    </mxGraphModel>
  </diagram>
  <diagram id="MDM6Az6aLnEb0tjoFCqc" name="Page-2">
    <mxGraphModel dx="649" dy="433" grid="1" gridSize="10" guides="1" tooltips="1" connect="1" arrows="1" fold="1" page="1" pageScale="1" pageWidth="1700" pageHeight="1100" math="0" shadow="0">
      <root>
        <mxCell id="0" />
        <mxCell id="1" parent="0" />
        <mxCell id="9N3OwBbr9jSOzS015suS-1" value="" style="shape=image;imageAspect=0;aspect=fixed;verticalLabelPosition=bottom;verticalAlign=top;rounded=1;fontSize=36;strokeWidth=2;fillColor=#000066;image=data:image/png,iVBORw0KGgoAAAANSUhEUgAAAgAAAAIACAYAAAD0eNT6AAAABHNCSVQICAgIfAhkiAAAAAlwSFlzAAAOxAAADsQBlSsOGwAAABl0RVh0U29mdHdhcmUAd3d3Lmlua3NjYXBlLm9yZ5vuPBoAACAASURBVHic7d13nB1V/f/x1y3b+6ZueiGVhITeQURBkCb4VRAb0kRERMCCIl1EQeldkBpAQHoJPUJCKiG9sOmbbO99b/n9MYm/uCTZvXfO3Zl75/18PO4jD7KZz372srvznjPnnPFhTgZwMHAkMBmYAAwGcoBCg59HRCRerUALUA2sBVYDc4GPtv+diGf4bB6fDpwA/BD4BpBtuyMRkb4XARYCTwIzgCpn2xFJvHgDQA5wHnAlMNRcOyIijusCngFuwhohEElJsQYAH/Aj4BZgoPl2RERcIwTcB1wNNDjci4hxsQSAEcATwFEJ6kVExI22AecDrzvdiIhJgV7+u5OBt4CJCexFRMSN8oCzsG59foA1X0Ak6fVmBOBi4E7An+BeRETc7jXgu1irCUSSWk8n9T8Ad/fi34mIeMFJwNtArtONiNi1pxGAi4B7+6oREZEk8j5wItDhdCMi8drdHICTgcexv0+AiEgqGg0MAV5xuhGReO0qAAwH3sSa8CIiIru2L7AB+NzhPkTi0v0K3wd8iJb6iYj0RgswBSsIiCSV7pP7foxO/iIivZUD3O50EyLx2HkEIBcoRTv8iYjE6htYqwNEksbOIwAXopO/iEg8rnW6AZFY7RgBSAfWY81qFRGR2B0NzHK6CZHe2jECcCI6+YuI2HGu0w2IxGLHCMALwOmmigZ8Pk4aUMgpA4qYmpvNgPQgaX5tKSAiZkWjULq5lq6ucK/+fX0kwtZQiNltbbzd0kJ9xOi2/s1AyfY/RVzPB2QAtUC2iYKHFuZy18RRTMzJMlFORGSP6hrbKauI/Wm9LZEIDzc08ExTE1Fz7ZwGvGyunEjiBIDDgQtMFPu/QcXM2GccgzLSTJQTEelRRnqA2vo2otHYTuPpPh+HZGUxPBhkVlubqRBQifXkVBHX8wNHmih0aGEuD0weQ7qG+kWkD/l9PgpyM+I+/vicHH5aWGiqHSO/T0X6gh+YbLdIwOfjzomjdPIXEUfk5qTbOv77+fmMT7dXY7uJ6OmpkiT8wAS7RU4aUMgk3fMXEYdkZdq77ejHCgEmWsF6noqI6/mxZq3acsqAIgOtiIjEJy0YwG9zBPLwzEzSfEZGMbWkWpKCH8izW2RqrpEFBCIicQsG7I285/j9lAR294T0mOSaKCKSaH4MPPZ3QHrQQCsiIvGzOwIA0M9MALB9USXSF/wYmLCiTX5ExGm+Lz3dPHZBM7cAjKQIkUTTbFUREREPUgAQERHxIAUAERERD1IAEBER8SAFABEREQ9SABAREfEgBQAREREPUgAQERHxIAUAERERD1IAEBER8SAFABEREQ9SABAREfEgBQAREREPUgAQERHxIAUAERERDwo63UCibWnvZGtHJy3hCA2hMFGiTrckLubDR0EwQE7Az9DMdIZmpDvdkqe1hCMsb26lsjNEUVqAkZkZDMvU/xMRE1IqAHREonxU18isukY+rmtiZUsbLeGI021JEssJ+JmUk8URRXkcXZTPUUX5ZPh9TreV8uY3tvCX9Vt5v7aBjsj/hvZ98rK5cNhAvl/Sn4BP/y9E4pUSAWBxUyv/LKvi+Ypa6kMhp9uRFNISjrCgsYUFjS3cvrGcwmCQbw8q5pyhA5iWl+10eyknHI3y+y82c8+mit2O1S1pauXilRt4tKyKGfuMoyQjrU97FEkVST0HYG5DM99avIYj5i3n4bJKnfwl4epDIR4uq+Twecs5ffEa5jU0O91SyogCF6xYz917OPnvbEFjC8cuWEFlZ1eiWxNJSUkZAOq6Qly5ZhNfX7iSd2oanG5HPGpmTQPHLljJ+cvXUaWTkG33b67g2fKamI7Z1N7Jj5aVJqgjkdSWdAFgZk0D0+cs5b7NFUQ0n08cFgVmlNdw4NxlvKswGreGUJg/rd8a17H/qWvilao6wx2JpL6kCQBR4PrSMs5YvIaaLg31i7tUd4Y4/fM13LSuTOtM4vBiRS11Nn6uHy2rMtiNiDckRQAIR6NcsnIDf9mwVb9cxbUiUbh5/VYuXLGerqi+U2Pxbq290ZNZdY16z0Vi5PoAEI5G+fGydfxzqxK+JIent1Vz7vJ1ukUVg01tnbaO74hEqQqFDXUj4g2uXwb427Wb+XdlrdNtiMTkxYpaioNBbp840ulWkoKJFTwXb92G3S2CNptZSfRn4DcmConsQSfQAKwHlgEfActjKeDqAPDglkru21zhdBsicXm4rJKpedmcO3SA0614wrpOe6MIBo1xugHxrDXAY8B9QI8zY117C+DzplZ+t3aT022I2PKbNZtY2tzqdBsi4g3jgZuAjcBVsOdBMVcGgFA0ykUr139pC1CRZNMeiXDe8nWENEFNRPpOHlYQWAhM3t0/cmUAuG9zBUuadNUkqWF5cxsPb6l0ug0R8Z4pwFzg+F190HUBoDEU5s9xbggi4lY3rd9Kc1iz1EWkz+UCrwLf7P4B1wWAB7ZU0qDlPJJi6rpCPKRRABFxRhrwHLDfzn/pqgDQFY1q1r+krHs2V2gugIg4JRsrBOTt+AtXLQN8p6YhMU/28vuhZDgU94c0uyuFJem0NEKol99XoRA0N0FdDUQiRtso7+jivdpGju9XYLSuiEgvjQWuA34FLgsAz8T4JLAelQyDs86Hw78KBUVma0vyaG2Gz+fEeEwLrFgCs96zwoAhz2yrVgAQESddAtwNrHPNLYBIFN6vaTRX8PTvw6Ovwoln6OTvddm5UBzjZjzZOXDAoXDp7+CQI4218l5to7YIFhEnBYErwUVzAJY0txrZDhSAc34BP/stBNPM1JPkN3BIfMcFAvDN0+HYE4y0UdsVYpk2BhIRZ30PyHZNAFjQ0Gym0BFfg7MvMFNLUkfhAOtkHq+jvw6TphhpZX5ji5E6IiJxyge+5poAsKa13X6RYBr89Er7dST1+HyQZ+NWkM8H3zjVXojYbm1rm+0aIiI2fdU1AaDURAA46AgYPNR+HUlNOXk9/5s9Ke4Pe0203UZpa4ftGiIiNk1zTQCoM7H5z4HmJmtJCsrMtl9j/CTbJWq7DM11ERGJ3zjXBIAmEwFgyHD7NSR1pRlY9Vrcz3aJJm0JLCLOK3TNPgDtJjZdycu3X0NSl9/+/XuycmyXaAub3WBILD++HAbrGkBsuvdaaKy3V2Pw5HT2Od3+74rdCbVHef9Wm01CjmsCgBk+pxuQVKdvMdcaOxlGT3C6C0l2YybD4tn2atSXhSiZko4vQb8vOlvMXES45haAiIiI08ban+ZDe0OE6tIEbGtvmAKAiIjIdmMMBACAdf8xsLItwRQAREREths3xch2H6z7pJ1wl7v3/VYAEBER2S47F8ZNtV+noylCqctHARQAREREdrLvYWbqLH+tlaiLBwEUAERERHYy3VAAaCgLse5j944CKADEoqkBNnwB5WXQ6eB2rq3NsGkdlG2EDge/uTrarR42rYNWBx9w09lh/T/Z8IX1/0hExIaho2DYaDO1Fv+r2bVzAVJsH4AEaGqA5x+Hj96GLRv+/98H02D6gXDSd+DwY0nYgs8dOtrh5Wfg/dfhi5X//+/9fpg8HY4/DY4z87CaPQqH4e2XYObLsGIx7LyB07jJ8NUT4ZSzICMjsX1Eo/Dxu/D6v2DxfAjttORm+Cg4+htwxg+1OZSIxOWob8LTd9uv01QRZvG/Wtj/e7n2ixmmALAnH78Lt14NzU1f/lioCxbMtl77HAB/uNV6WEwiLPsMbrwcqiu//LFIBJYtsl4vPA7X3G6dABNh8wa49lLYWLrrj69dYb1efAL+cBvsPT0xfdRWww2Xw9KFu+/zyfvh5afhihusgCYiEoMjjodn74ewgUd3LHulheH7ZzBwQpr9YgbpFsDuvPE8XHfZrk/+3S1ZAD8/C2p2cYK2a/7HcOW5uz75d7fhC7jkLFi3xnwfpaut2rs7+e+sqgKu+IkVjkyrrrTe692d/HfW1AjXXgZvvmi+DxFJaflF5iYDRqPwyQONrrsVoACwK8sXw503EtP0zcpt1snGxDMNdti2BW68Aro6e39McxP88RKz9+Rbmq2avQlDO3R1WqMW5WXm+ohE4JpfWO91b0UjcMcNsHKJuT5ExBNOONNcrYayEAuebDZX0AAFgO6iUbj/rxCKY9xn5efWvXFTHv67dfKNVXkZPPuIuT6e+QdUbI39uOYmeOQOc3289SKsXhb7caEuuOfm2AKdiHjehH2slykr32plxRut5grapADQ3col1ok8Xi89baaPuhqY9U78x7/yjDVhz65QCF57Nv7jP3jLumdvgp33dtVS+GKVmT5ExDNO/oHZevMfb2LjPAdXke1EAaC7ubPsHV+6qnf363vTR9TG7YSmBntBZocVi6176fGKRmDBJ/b7qKqwP7dh4Rz7fYiIp0w7xNzzAcAaiJx1VwOVa5x/WJACQHdbN9k7Phq1X8NEHwBlqVRjo/0aJucjiIgn+Hzwg0vNrvQOd0aZeWMdmxc6OxKgZYDdNdbbr9FQZ6APAxvamOjDxMY6bunDxP9bkT7U3gbbNkH5ZuvPjnZoa4a2VmsLkIxMyMmDrFwoGQ6Dt7/S0p3uPLWMmwIHfxU+fc9czVBHlPdvrefgc/KYeFy2ucIxUADozsQ8MRMrAUxMWDPRRyp9LZoEKC7X2gzLF8KKRbBiIZRtiL1GIACjJsDkfWHSftYrzV3Lz5PSmRfBoo/NbgIbjcCn/2iipTrCvt/NxZ/gfdy6UwAQEXFQOASfz4WP37JOMCGbt4bDYShdYb1efcoaITjoGDjsOJg4LfGblqaq/oPhOxfCk3ear7305RbKFndwxM8KKB7Vd6dlBQAREQd0tMOHr8LrM6A2AXuI7dDSBB+8Yr2GjYGTvgeHfj3xu4anouO/DQv/Ays/M1+7dmOI166qYe+TcvpsNECTAEVE+lA4ZJ30L/s2PHFHYk/+3W1ZB/ffCFecCbPf0V2xWPn8cMFVkJmVmPqRsDUa8Prva9m6JIYN4OKkACAi0kdWLYbf/wRm3OPsnNSqbXDvdXDTJbC5F7t7y/83oATO/U1ib6XUrO9i5k11vHV9HWWLO8zMTdsF3QIQEUmwrk546i547yV3XXWvWgx/OBe+fb51a0DzA3rn0K/BhtXWSE4ilS/vpHx5JwVDg4z7SiZjj8wiq8jcdbsCgIhIAlVtg7uvsSbluVE4BM/eB8vmwUV/hMJ+TneUHL57EWxYY63aSLSGshALnmpm4YxmBuyVxuApZtZ56haAiEiCrFgEV/3YvSf/nS1fCNdcAFs3ON1JcvD74dKbYOS4vvuc0QhUruliyYtmHvamACAikgAL/wN/vQLaDD6YM9FqKuC6i2C1Hp7ZK9m58Ju/WZsvJSMFABERwz55G+74fWxP8naLlia45VeJWeqWivKL4Mpbk/PWiQKAiIhBi2fDgzeb2bzSKZ3t8LffWve4pWeDhsI191t/JhMFABERQ75YDnf+0ZpYl+zaWuDWK61JjNKzASVw9b0wYqzTnfSeAoCIiAHNjXDXH62r51RRXwN3/gG6nH9ybVIo7AdX3QkT9nG6k95RABARsSkahQdvsibRpZr1q+GZe53uInnkFsBVd8HJZzvdSc8UAEREbHrrOVj0idNdJM7M52HxHKe7SB6BgLVPwAW/c/ejmRUARERsqK2EFx52uovEikbh0VtT6/ZGXzjqm3DjIzB6otOd7JoCgIiIDU/eBe1tCf4kacAY4FDgBOBbwGnA8cBBwAgS/tu8pgJeezqxnyMVDR0F1z5gjQgE05zu5n9pK2ARkTitXgLzPkhQcT8wFdgf2Iuef1t3AiuABcBaEvIAmVefhK+cBMUDzddOZYGANSdg+iHw5J19s31wb2gEQEQkTi8/loCiPqyT/q+Bs4GJ9O5SLR2YDpwHXAqMN99aVye88Yz5ul4xfCz87g747e3WyIDTFABEROKwfjUsmWu4aAFwAfBdoNhGnSFYQeB7QKaBvnbywSvQ1GC2ptdMOQBuehTO+62z2wgrAIiIxOGt5wwXHAn8EjC5kcx0rNGA/uZKdrTDe/82V8+rgmnW7ZS/PgWXXA9jJvV9DwoAIiIxam+DBR8ZLLgX1pV/jsGaO/QDfgYMMlfy47fM1fI6nx8O/ipc/xDc8qQ1VyC/qG8+twKAiEiM5n9oXQkbMQT4EdZM/0TJxbolkG+mXPmW5HjEcbIZOspaLXDni3DFX+DY06BfAidcahWAiEiMPn3PUKFM4AdAhqF6e1KANSfgQcDAg4o+fQ/GTrZfR74smAbTD7NeAJu+sJ7OWLoCSldCxRZDn8dMGZdoa4GmRns1QgY2vW5vs9+HieeIdnbY76Ozw34fXZ32+zCx0DochrZWezU6DLwfktTCYWv5nxHfwBqi7ytjgMOAj+2XWrbAfg1TohHreQXpfRGkHDBiL+u1Q9U2uOz/7NdNrQBw+TlOd2D56x+c7sDy+L3Wy2kzX7ZeTlu+2HqJ2FC6Atpt5kjAuid/iIE6sToOWATY/Bq2rIPGesgvNNFU7DassVYkLJlrbVIUiUB2LoybYt1TP/x4a/19KsrONVMntQKAiEiCrfrMUKFjcGYWViZwOPCOvTLRqPVeHHSMiaZ6r6Pd2pb4k7etHnbW2gyff2q9XnkCfvZHZ2bXJwtNAhQRicHmdQaKZANOPjL2YIz89jfyXsSgtRlu+Jm1CqH7yb+78s1w48+tMCC7pgAgIhKDbZsMFJmCs+Ov+cBo+2WMvBe9FI3CvddZQ/+91dkBd1/Tt30mEwUAEZFeikatK0vbxhmoYZeBDYeMvBe9tOCj+B5J3NYCT91lvp9UoAAgItJL7a2Gnvw3zEANu0bYL1FbZb9Gb73xbPzHLp4DW9ab6yVVKACIiPSSkZN/AOijnd72yMD2wEZWQ/RCYx18sdxejUUGlj6mGgUAEZFeMnLCy8Idv3mz7Zfo7LD2RUi0bZustf52bN1gpJWU4oZvQxGRpGBiX6yEbvkbi3QzZTpNbYm8By1N9ms0G6iRahQARER6KcPEo3UNbPJphKE+0g0/bnhX8grs13BqwyI3UwAQEemlTAPD5rQBfTBs3qMW+yXSM/tmt72SkfY/z7AxZnpJJQoAIiK9lJlloEgEqDVQxy4DM/izTASiXsjNhwnT4j/e54P9jjDXT6pQABAR6aXMbEP7sPfh+vndMrA5TvEA+zV666Sz4z/2oGNgsBuWXrqMAoCISAxKDKyfZ62BGnYZ6MHIe9FL+xwMh34t9uPyCuCsn5nvJxUoAIiIxGDwcANFlgMGnjwetzqMjAD0ZQAAOP93MGnf3v/77Fz45c3Qf3DiekpmCgAiIjEYYWALXdqxHsnrlDlADw/T6Y3hJt6LGKRnwG//DieeCYEenqUwdjJc+wBMcPKhSy6nxwGLiMQglivQPfoAOABrZ8C+1IIVAGzy+WGijYl58QoE4Xs/h2O/BbPegCWfQlU5dLRZcxL2mgIHfxX2Pcya/Ce7l1oB4N7nYPxkp7sQt2qogRU2L7u2bob7/mamH0lKoyZYQ8utzTYL1QKzgGMMNBWLNwADGxqN3AtyDazPj9egofB/51svr6naZqZOagUAEZEE8/utUYCF/zFQ7B1gIlBioFZvrAQWmCm19/5m6siehUOwajGsXAzrVlqv5kYztRUARERidOjXDAWAEPAEcDGQY6DenlQBz2Lk3j/AIXHMyJfeaW22vr8+mw1L51mPNE4EBQARkRjtd4Sh2wAA1cAjwHlYDwpKhDrgYcDQ0/uGjoLRE8zUEks0AmuWwSdvwSczoaMPnrGgACAiEqP0DGui2QevGCq4GbgP+Alges/6MuBRwNCwMcARJ5ir5XWdHdZkxjdmQOXWvv3cCgAiInH4xnfgw9fsP6b2v8qB24EzgKkG6kWB2cDrWLcaDMnMhmNONlfPq9pb4Z1/w1vPQoNDW0MrAIiIxGHoKDjgKJj/ocGirVhzAiYCxwND46zzBfAmCdly+Ovfsvbml/hEI9YQ/4x7nTvx76AAICISp1N/CAs+gqihiXX/tQpYDYwF9scKBD1NEmzA2mFwAbDFcD/bZWTCN76bmNpesHIxPHkHbHTDVtAoAIiIxG3UeDjqRPjo9QQUj2JdyX8B+IBB21+FQOb2j7dj7SewDahJQA/dnPojKChO/OdJNZ0d8O9H4LUZBm8ZGaAAICJiw1k/g0UfQ1NDAj9JFGuOQHkCP0cPBg+DE8507vMnq7XL4IGboNwNT4DsRs8CEBGxIbcAvnuR010kls8PP/k1pKU53Ulyef8VuPFid578QSMAIiK2feUkWLnImtyVik79AUzez+kukkd7Gzz0J5j7gdOd7JlGAEREDDjnyr5/PG5fmDgdvvUTp7tIHrWVcN1P3X/yBwUAEREjMrPg0hshJ8/pTswZUAKXXA+Bvn5iYZKq2gY3XQKbS53upHcUAEREDBk2Bq681Voul+zyCuDXt2nWf29tWQfXXwQVZU530nsKACIiBu21N1x8HQSTeMJcTp518k/FWxqJsLkUbrgY6qqd7iQ2CgAiIobtd7h1As1K9BP+EqCwH1x1J4ye6HQnyaGiDG75FbQ0Od1J7LQKoDeWLIAP34KVS6CmCjIzYdAQOPAI+NpJUDygb/r4YiW8/4bVT3UFBIIwYDDsdwgcexIM7aO4XrYR3nsdFn0KldsgErb62OcA+OqJMLaPfnPUVsG7r8H8j6FiK7S3Q78BMHkaHH281Y+IQybvZ51Ib73S+S1fe2vIKPj1rdB/sNOdJIe6arjlMqjvg02YEkEBYE/Ky+C2P8Jnc7/8sa2brb9/7B4481z4/oXWYtlEaKyHO26AWTO/vOdoxVZYtgiefhC++X9w4RXWo8oSoaMDHvgrvP4vCIf/92PVlVZAeu5R6+R76dXWTcREiETgyfvh2Ue+/MzM2ipYuwJengH7HQq/uhYGx7uhuog9oyfAzY/BvdfDsvlOd7NnBx4N5//Oesyx9KyrC26/qm+f4BfM8FEyJZ3Bk9OZ/4T9IQcFgN1ZvQyuugga6vb87zrarRCwZjlc83fzN/7Ky+DX51mBY09CIeukt3oZ/PlByDU8FbmpEX57gVV/T6JRa7Rk7Qq45SHzJ99QF1z7S/j0o57/7aI5cPGZcPMDMH6y2T5Eeim/yLod8OIj8OoTX87OTsvIhLN/AV89xelOkstjt0Hpir75XIMmpjHumCxGHpxJWpaPzpaIkQCgOQC7Ul0JV/+855P/zuZ8CHffbLaPtlb4w8U9n/x3tmop3HiF2Q2nIxG48fKeT/47K9tkvYftbeb6ALjzxt6d/HdoqLP6qKk024dIDPx++PZ5cMMjMN7Eo34N2fcw+PMTOvnH6r2XrEdBJ5QPRh2SyUk3F3PCdcXs9ZUs0rJ8Rj+FAsCuPHgr1MYxnfO152DxPHN9PPMwbPgi9uMWfGLdGzdl5suwcE7sx61faw3Tm7JkAbzxQuzH1VTCQ38z14dInEaMhavvhQt/DwOHONfHqPHWcsXL/2Kt9Zfe27IenrwzsZ+jZEo6J99czFcuK6D/mMQtJ1EA6G7bFvjgrfiPN3XC62iHF5+M//inHjTTB8CMh+I/9oXHrbkDJjxt42t67w2odPBJKiLb+Xxw5Anw1xnw06th6Ki++9zjpsIVf4Eb/gHTDum7z5sqwmF48E/Q1ZmY+mlZPg47P5/j/1BEv9GJX0eqOQDdzX7f3vD5Z3OhpRlybM6kWfCJdQsgXls2WKMHo/ay18f6tdZwfrxaW2DhbDjsGHt9NDfZG12JRqzVAqPH2OtDxJBAAI443nqtXw0fvwVz3rHm/JpU1B8OOsYKHaPGm63tNS8/ButWJqb2kH3SOfzCfHL69922iwoA3ZWutnd8qAs2rYNJ+zjbB8C6NfYDgIk+1q+xHwA2lloTHe3Y8IUCgLjS6AnW66yfwRfLYcUiWL4Q1q+yniUfi6wcGDfFWoY4eT+rbqIWKHnJ1o3w8uPm6/p8sP/ZeUw5KRvM3uLvkQJAd3UGFnTWVtmvUW9g4bCRPgy8HzUu6cPEeyqSQME06+E7E6fD6T+xBq6qK2DbJmu5WVsLtDZZg4P+gPX8gaxca+e+wUOhZKR1xS/mPX03hG1eg3QXSPNx+EX5jDncmb2jFQC6M7FGx+6Vqpv60Nci4hif35qkp4l6zlq+ABbHMQ96T9Jz/Bx7ZQGDJqWbLRwDBQAREZHdiEbgCcOz/tOzfXzjmiKKRzp7CtadIRERkd2Y/5H1pD9T/AH4ymWFjp/8QQFARERkt159ymAxHxx2YT5D9nFu2H9nCgAiIiK7sHSetRLDlGmn57DX0VnmCtqkACAiIrILbz5rrla/MWlMO8NdT1pSABAREemmrsrcExz9QR9HXJSPv+/2+OkVBQAREZFuZr1hPQfNhOln5FA0wvlJf90pAIiIiOwkGoVZb5qpVTA0yJRTc8wUM0wBQEREZCcb10LFFjO19j8r13VD/zsoAIiIiOzkc0O7/vUbncaIAzLMFEsABQAREZGdLPrETJ29HXjATywUAERERLZraoB1Btb+ZxX6GXWoMw/56S0FABERke3WLrX2/7drzBGZrr33v4MCgIiIyHYmrv4Bxh7pnh3/dkcBQEREZLvSFfZr5PQLuOJhPz1xf4ciIr2wbAFUbnW6C0l2Jvb+zx3gZ8PcdvuFdiPUHjVRJqoAICIp4dn7nO5AxFKxqouKVQ1Ot9GTFt0CEBER8Z5aBQARERHvWasAICIi4j2fKQCIiIh4z3sKACIiIt5SC3ygACAiIuItjwEdCgAiIiLe0Q7cBtZzimzvKLDl6H0pDNrbUmDq7CWsb+uw18iIMZBp8+ELWzZBa7O9GiXDIC/fXo2KbdBQZ69G/4FQ3N9ejdpqqK60V6OgCAaV2KvR1AjbbD6gOysHiort1ejqhKoKWyVGZ2Ww9LB97PWRYoz8/ItIb1wHXAupthPgpnVOd2DZtgW2Od0E1onb7snbHtA2JQAAIABJREFUhIY6+2HGhLYW6yUi4k1LgVt2/IduAYiIiKS+euA7QNuOv1AAEBERSW2twKnA/zzpQAFAREQkddUAXwNmdf+AAoCIiEhq+gTYD5izqw8qAIiIiKSWcuBC4Chg0+7+UWqtAhAREfGuOVib/DzOTpP9dkcBQERSwtTMTGzuAsLqzk4aIxG7rSwF7G0WIdKzDqABWI/1PfcR1pV/rykAiIjjitOCtjcCurVkEAVhe/uaXVJZyfz2dls1gBuAf9ktIpJomgMgIo4blZVh6/gsv5/+gYChbkS8QQFARBx3fL8CW8cf2y+foM9nqBsRb1AAEBHHnTqwmIHpaXEff97QgQa7EfEGBQARcVxOwM91ew2L69gT+hfyNZsjCCJepAAgIq7wg5L+XDAstiv58TmZPLz3mAR1JJLaFABExDVumzCSa8YOI60X9/O/3q+A9/afREFQk/9E4qEAICKu4QOuHFXC/EOmcHZJfwqD/7tSOejz8ZXifJ7ZZxz/nj6eojStZBaJV2r99Fx6NQwd4XQX4lYtTbBxrb0aNVXw6vNm+pHd2is7kwcmjyYUjbKxrYOKzi4Kg0GGZ6aTpyt+ESNSKwBMmArjJzvdhbhVQw0EbS4Vy8oy04v0StDnY2x2JmOz7e7xJyLd6RaAiIiIBykAiIiIeJACgIiIiAcpAIiIiHiQAoCIiIgHKQCIiIh4kAKAiIiIBykAiIiIeJACgIiIiAcpAIiIiHiQAoCIiIgHKQCIiIh4kAKAiIiIBykAiIiIeJACgIiIiAcFnW4gKbS3wYLZsGIx1FVDRhYMKoEDj4C9JvVdH6EuWDwflsyH6krw+2FgCex3KOw9DXx9lOciEeu9WPQpVG6z/rv/QJh2EEw7AIJpfdMHwNoVMP8Tq4+ONigeAJOnwQGHQ4aeId/X1ra2s7KljS9a2ynv6KI1HKEhFCY34Cc74Kd/ehrjszMZl53J5Nwsgj6f0y2LeJYCwJ6EuuBf/4Rn/gEtzV/++D/ugIlT4cIrYOr+iesjGoU3nofH7oXaqi9//PF7YfgoOO8yOPzYxPUB8PF78PDfYcuGL3/s6Yeg30D40cVwwumQyF/uSxbAA7fC6mW7/nhuHpx5Lnz7R30bSDymLRLhtao6Xq+qZ1ZdE5WdXb0+NjcQ4MiiPI7rV8C3BxVTlKZfRyJ9ST9xu9NYD9dcCksX7vnfrVoKl59jhYAzfmi+j44OuOV3MGvmnv/d5g1Wv2f8EH56hfnRgGgE7v8rvPDEnv9dTSX87RpYOBt+8ydIzzDbB8Dzj8GDt1kjD7vT3AQP3w7zPoZrb4f8QvN9eNj6tg7u2FTOc+U1NIbCcdVoDod5s7qeN6vr+c3aTZzYv5BfjizhgPwcw92KyK5oDsCuhEJw7S97PvnvEInAfX+xrtJNikbhtqt7Pvnv7IXH4Z/3mO0D4JG7ej757+yjt+HPv7O+BpPefskKIns6+e9syQK4+hLo6jTbh0eVd3Rx4Yr17DtnKQ9vqYz75N9dZyTKS5V1fGX+Ck79bA3Lm9uM1BWR3VMA2JWnHrBOHLG6+2ao2Gquj3degfffiP24px+EFZ+b62PpQnjm4diPmzUT3nvdXB/lZXD79bEft/wzePYRc314UBS4f3MF+366lKe2VRMyHex28l5tA0fMW85VazfT1tugJyIxUwDorqnRGmKOR2cHPHm/mT6iEXgsziv5aBQevdNMHwCP3hX/lfw/77K+FhOevD/+K/nnHt31PA7pUU1XiG8vXsMVazbRZOiKvydd0Sh3birniHkrWKHRAJGEUADo7tMPoa01/uNnzbQmD9q1fLG90YTF83c9YTBWNZW9vxWyK+VlsHKp/T5CIfj43fiPb22BhXPs9+Exq1raOGLect6uaXDk869uaeOYBSt4x6HPL5LKFAC6W77Y3vEtzbCx1Pk+ohEztwFWfG7/Pv6yRfb72LDWmthnxyoDQcRD5je2cNzCVWxud3b+REs4wnc+X8uz5TWO9iGSahQAuquptF+j2kANI31UuKMPIzUMjGbUVtuv4RErmtv41mdrqO0KOd0KYN0SOH/FOv5dWet0KyIpQwGgu44O+zXaDdyzNNJHewrVMPGeGujDAza1d3LK4tXUh9xx8t8hEoXzl69ndr3NkSARARQARGQnoWiUc5aVUt5hYB5LArRHInx/aSkVMWw4JCK7pgAgIv91XWkZcxvcvVqistPaiyBxCxFFvEEBQEQAWN7cxl2byp1uo1ferWngOU0KFLFFAUBEiAK/WLUhoRv8mHbV2s19ti+BSCpSABAR3q6ud/3Qf3cVnV08sMXAChMRj1IAEBFu3bDN6RbicvfmclrC2i5YJB4KACIe93lTK58m2dX/DtWdIV7U3gAicdHjgEU8bka5+Q2S/IEABf0Gkp2XT1p6BqGuTtpbW6ivqiBk+MmMM7bV8IOS/kZriniBAoCIx71QYe4KOhAIUjJmHCUjx+IPBL708Wg0SvXWzWz5YiWdJjaIAj6ub9S+ACJxUAAQ8bDVLW1sM7TpT0ZWNhP2O4Ss3Lzd/hufz8eAoSMoHDCItYvn01RnfylfJAqz6hrZD5/tWiJeojkAIh72nzoz2+oG09KZeMBhezz57ywtPYMJ+x9Cdl6+kc8/y9DXIeIlCgAiHra02cajr3cyevI0MrNzYjomEAiy1z4H4PPZv3Jf2mTm6xDxEgUAEQ9b02r/PnxOfgHFg4fEdWxWbh79hwy33cNaA1+HiNcoAIh42KY2+zPy+w0eZu/4EnvHAzSEwjRGtB+ASCwUAEQ8rDFsfyvdvOJ+9o4v6gcGbgM0a0MgkZgoAIh4WLOBvfTTMzJtHe/3+0lLS7fdR4tGAERiogAg4mFdBh7+4w/YX01sokaXHhAsEhMFABEREQ9SABAREfEgBQAREREPUgAQERHxIAUAERERD1IAEBER8SAFABEREQ9KrccBv/QUFPe3V2PrJvt9vPc6rF1hr8aqJfb7mP8xNDfaq7HSQB+rlsDDf7dXY9N6+32Ul8HM1+zVsPt+ioi4RGoFgJkvO92BZfb7MNvpJoDP51svp5Wutl5Oqyy3XiIiolsAIiIiXqQAICIi4kEKACIiIh6kACAiIuJBCgAiIiIepAAgIiLiQQoAIiIiHqQAICIi4kEKACIiIh6kACAiIuJBCgAiIiIepAAgIiLiQQoAIiIiHqQAICIi4kEKACIiIh4UdLoBo447FYr7O92FuFVHG1RX2KvR3AifzTfTj4iIg1IrAJx2Noyf7HQX4lYNNbBikb0aWzcrAIhIStAtABEREQ9SABAREfEgBQAREREPUgAQERHxIAUAERERD1IAEBER8SAFABEREQ9SABAREfEgBQAREREPUgAQERHxIAUAERERD1IAEBER8SAFABEREQ9SABAREfEgBQAREREPCjrdQNJoaoQ1y6G2CjKzYNAQGDcJfH2codrbYPUyqKqAQAAGlsCEvSGY1rd9hLpg1TKoKodwGAYMgolTISOzb/uIRGDtCqjcZr03/QbAuL0hL79v+xARSTIKAD1ZvQweuwcWzrZOdDsrLIYTz4Dvngs5uYntY/MGePwemP0+dHT878dycuGr34Qf/BSKByS2j5pKePJ+eP8NaGn+349lZMDhx8KPLoahIxPbR3MTPPsIvPkC1Nf+78eCQdj/MKuP8Xsntg8RkSSlWwC7E43Co3fBz8+Cef/58skfrBPP0w/BT06BVUsT18trz8H5p8EHb3755A/WifjVZ+HHJ8PcWYnrY86HcM7J8OpzXz75g9Xb+2/AuafBG88nro+VS6z3fMZDXz75A4RC1vtw8ZlWeItGE9eLiEiSUgDYnXv/DE890LuTR00lXH4OrFlhvo8XnoDbr7dOaj1pbYarf26dqE2b/T788RfQ2tLzvw11wd+uhZeeMt/HmuVwxU+sWzE9iUbhifvg/r+Y70NEJMkpAOzKh2/Bv2M8eXW0w7WXWvehTVnxOTzw19iOiUTg5t9YcwRMqdgKN/8WopHYjrvvL2ZHRtpa4ZpfWO91LF54AmbNNNeHiEgKUADoLtQFD/89vmMrt1knG1MevM06oceqtQUeu9tcH4/dY518YxUOW1+DKc8/Fn+weehvEO7FKIqIiEcoAHT32VwoL4v/+DdfMNNH2SZYtij+4z94w8xoRHubNSISryULoGyj/T4A3n4p/mO3bYFli830ISKSAhQAuls4x97x5WVmTngLPrF3fEeHvQCxw5IF0LmLiYexsPuegrUKwk4wA/h8vv0+RERShAJAdxVbVeN/amyzX6PSQA0TX0tVuf0aIiIpQgGgu10tb4tVc1Pq9NFqoI+mRnf0YeL9EBFJEQoAieCWdecm+kilr0VERP5LAUBERMSDFABEREQ8SAFARETEgxQAREREPEgBQERExIMUAERERDxIAUBERMSDFABEREQ8SAFARETEgxQAREREPEgBQERExIMUAERERDxIAUBERMSDFABEREQ8SAFARETEg1wTAAI+n/0inR32a4jsSShku4SR73VDggZ6iUbCtmtEDNQI4J73VSQZuCYA5AYMtFJbZb+GpK5o1H6NxgbbJfICAft9GJJj4Oeus8Ne8I5Go4QMhPdcvwKASCzcEwCCBn4prvjcfg1JXZGI/RqbN9gukWfie90QE70019faO76hjqiBcJbjd82vM5Gk4JqfmOEZ6faLfPwuhO0PJUqKsjvMHA7DiiW22xieaeB73RATvdSUl9k6vtbm8WCNZBS4aGRFJBm4JgCMy8m0X6S8DN7+t/06kprs3r9f+CnU19luY1y2ge91Q0z00lRXQ0NNfLffOtvbqNyy0XYP47IzNQNAJEauCQCTc7LNFHrwNiPDtJKC7IwAVFXAO68ZaWPv3CwjdUzYO9fMz9365YvpivE+fjQaoXTpIiIGRu0mG/o6RLzENQHgiKJcjMzhaW6C310IG0sNFBMBKsvh8Qehvd12qYDPx2GFeQaaMuMIQ710tLWyeuGndHb07j2KhMN8sWQhjbXVRj7/kUXueU9FkoVrAkBhMMi03BwzxcrL4JKz4cUnIdRlpqZ4TzgMsz+CB28HmxPddtg3L5sCF00CnJqbTXFa0EitlsZ6ls35iOqtm/e44qKxtprlc2dRW77VyOcFOLoo31gtEa8w85NvyGkDi/isqcVMsdZmuPfPMOMhOPQYmDgV+g2AtLQ9H9dkf5kX69dCns1fSNUV9vvYugkWzbFfw67qCvt9rF9rv4+2Vihds+d/EwpBcyNs2QSrllkjSgadNrDYaD27/D44dWARj5aZWULb1dFO6dJFbPliFUUDB5OdV0Baegahrk7aW1uoqyyn1cTP2E72z89hRGY6GvMTiY0PsL3+ZsvR+1IYtJ8ltnZ0MumTJYRNrNcWcRm/D1YePo2hJla8GDS7vonjFq5yuo243TZhJBcOG0jpplraOuyN+F1SWcl8+7d6vgP8y24RkURzzS0AgCEZ6Rzfr8DpNkQS4pv9i1x38gc4tDDPVRMTY5EbCPCdQe4aVRFJFq4KAABXjh7idAsiCXHFqBKnW9glH3D5SHf21pMLhg2kyNAcBhGvcV0AODA/h+M0CiAp5sT+heyfb2iSawKcMaiYiTnJNQqQHwxwyYhBTrchkrRcFwAAbp0wkkxt6ykpIsvv55bxI5xuY48CPh93ThyZVJvpXD1mKAPSe5jUKyK75cqz7JisDK506XCpSKx+M3oIo7MynG6jR4cV5vH9kv5Ot9Er++XncMGwgU63IZLUXBkAAK4cNYRjirW2V5LbkUV5XDZysNNt9NqtE0YyweW3AnIDAR7Ze4yrHqsskoxcGwD8Pnho8hhXzpoW6Y1hmen8c8rYpDpR5QT8PD5lrKueWLgzvw8e3Hs0e7noeQoiycq1AQBgcEYaL+87XrN8JekUpwV5efp4BiXhPeq9c7N4bp9xrpyH8+dxIzhlQJHTbYikBPf9hHczMSeLF6crBEjyKE4L8uL08a4fSt+TI4vyeGzqWNeEAB9w3dhh/Gy4Zv2LmOKOn+4eHJifwzv7T2SYi56jLrIrwzPTeWf/iRzg4iV/vfXN/oW8NH08+Q7fDgj6fNw9aRSXa2KwiFFJEQDAGgn4+MC9+br2CBCXOroonw8PnJzUV/7dHVGUx5yD9+ZAhwLNwPQ0/j19PD8aMsCRzy+SypImAAD0Tw/ywrTx3LDXMLIDSdW6pLCcgJ+bxg3n1X0nJOU9/56MzMzgzf0n8osRgwn24YTGbw0sZt7BU7QaSCRBku4s6vfBZSNLWHDIVE4dWJRUG5dIavFhPcFywSFTuXTEYPwp/M2Y6ffzp3HD+figyRyV4EfvTszJ4qXp43li6lj6p2vuj0iiJO1P14jMdJ6auhfLmlu5dcM2XqmqozOipwhK4qX7fZw6oIgrRg1J2ofoxGtKbjZv7DeB2fVN3LphG+/WNmDqx26//Bx+NbKEUwYUpXSYEnGLpA0AO0zJzeafU8ZS2xXi+YpaXqqsY15DM+2RiNOtSQrJ9Ps5uCCXUwcW8e1BxRR7fFXKYYV5vDg9j7KOTp7ZVsMb1fUsbGwhFMOjvH3ApNwsvtGvkDMH92Oyx8KUiNN8gO38vuXofSkMuucXYnskwvyGFla1tLG6tZ2tHZ00hcI0hMLE8PtJPMjng4JggLxggKEZ6YzPzmRSThYHFOS4ZkmcWzWHw8xtaGZVSztrW9op7+ykORyhoStMbtBPbiBA/7Qg43IyGZedycEFuQw0OGeidFMtbR1dtmpcUlnJ/PZ2u618B/iX3SIiieaes7ZBmX4/RxblcWRRntOtiHhGbiDAscUFHFuslToiyUCXNCIiIh6kACAiIuJBCgAiIiIepAAgIiLiQQoAIiIiHqQAICIi4kEKACIiIh6kACAiIuJBCgAiIiIepAAgIiLiQQoAIiIiHqQAICIi4kEKACIiIh6kACAiIuJBCgAiIiIeFHS6gWQRBRpCIRpCYSJRp7uRXfH7oCAYoDCob2sRkZ7oN+VuhKJR3q9t5J2aBubUN7GmtZ3WcMTptqQXcgJ+xmVncmhhHsf1K+CrxfkEfD6n2xIRcRUFgG4aQ2Hu31LBA5srqejscrodiUNLOMLiplYWN7Vy3+YKBmek8dNhg7hw2EDyggGn2xMRcQXNAdjJ09uqmTZnKdeXlunkn0LKO7q4tnQL0+Ys5ZnyGqfbERFxBQUArCvGHy4r5YIV66nSiT9lVXZ2cd7ydZyzrJQW3c4REY/zfACo6Qpx4qJVvFhR63Qr0kf+VVHLNxetoqYr5HQrIiKO8XQAaA6HOe2zNSxsbHG6FeljCxpb+NbiNTSHw063IiLiCM8GgChw7rJ1fNakk79XLWps4YLl69GqThHxIs8GgIe3VPJ6db3TbYjDXqmq4x9llU63ISLS5zwZACo7u7imdIvTbYhLXPPFFk3+FBHP8WQA+PvGchpDuvcrloZQmDs2lTvdhohIn/JcAGgJR3hEQ77SzcNbqrQ0UEQ8xXMB4KXKWv2ily9pDod5parO6TZERPqM5wLAm5r4J7vxlr43RMRDPBcAZtc3O92CuNQn9U1OtyAi0mc8FQDqukJUara37EZ5Rxd12h1QRDzCUwFgU3un0y2Iy23W94iIeISnHgdsYttXn89Henq6gW7EtM7OTqJRe/v6NWlrYBHxCE8FgM6I/U1fBwwYwPe+9z0D3YhpTz/9NJWV9pZ4mvgeERFJBp66BSAiIiIWBQAREREPUgAQERHxIAUAERERD1IAEBER8SAFABEREQ9SABAREfEgBQAREREPUgAQERHxIAUAERERD1IAEBER8SAFABEREQ9SABAREfEgBQAREREPUgAQERHxIAUAERERDwo63YD03ubNm1m9ejVbtmyhubmZUCjkdEsABINB8vLyGDp0KBMnTmTYsGFOtyQiIj1QAEgCzc3NzJw5k02bNjndyi6FQiHq6uqoq6tj2bJljBw5kuOOO46cnBynWxMRkd3QLQCXq62tZcaMGa49+e/Kxo0bmTFjBrW1tU63IiIiu6EA4GIdHR28/PLLtLS0ON1KzJqbm3nllVfo6OhwuhUREdkFBQAXmzt3Lg0NDU63Ebf6+nrmzZvndBsiIrILCgAu1dnZyZIlS5xuw7bPP/+crq4up9sQEZFuFABcauPGja6Z5W9HKBRi48aNTrchIiLdKAC4VE1NjdMtGJNKX4uISKpQAHCptrY2p1swprW11ekWRESkGwUAl8rKynK6BWNS6WsREUkVCgAuVVRU5HQLxhQXFzvdgoiIdKMA4FKjRo0iEAg43YZtgUCAkSNHOt2GiIh0owDgUhkZGUyZMsXpNmybOnUqGRkZTrchIiLdKAC42MEHH0xubq7TbcQtLy+Pgw8+2Ok2RERkFxQAXCw7O5tTTjmFzMxMp1uJWWZmJieffLImAIqIuJQCgMsNHDiQs846i5KSEqdb6bWSkhLOOussBg4c6HQrIiKyG3occBIoKCjgu9/9LqWlpaxatYqysjLXra3Pzs5m2LBhTJgwgbFjxzrdjoiI9EABIImMHTv2vyfXcDjsmq2Cg8FgSqxYEBHxEgWAJBUIBHTSFRGRuGkOgIiIiAcpAIiIiHiQAoCIiIgHKQCIiIh4kAKAiIiIBykAiIiIeJACgIiIiAcpAIiIiHiQAoCIiIgHKQCIiIh4kAKAiIiIBykAiIiIeJACgIiIiAcpAIiIiHiQAoCIiIgHBZ1uoC+l+Xy2a9TU1PDoo48a6EZMa25utl3DxPeIiEgy8FQAyA0GbNcIh8M0NDQY6EbcKM/A94iISDLw1C2AoRlpTrcgLjc8M93pFkRE+oSnAsCA9DT6pXlq0ENiMCA9jWJ9f4iIR3gqAAAcVpjndAviUocX5jrdgohIn/FcADi+f4HTLYhLHd+/0OkWRET6jOcCwOkDi8nye+7Llh5kB/ycNqDI6TZERPqM586E+cEAPxzS3+k2xGV+PGSAVgCIiKd4LgAAXD6qhJyAJ7902YXcQIDLRpY43YaISJ/y5FlwSEY6vx8z1Ok2xCWuHjuUEi0RFRGP8WQAAPj58MEcW6wJgV739X4FXDRskNNtiIj0Oc8GAL8Pnpg6lqm52U63Ig6ZlJPFo1PG4NfuvyLiQZ4NAGBNCHxh+jgm5WQ53Yr0scm5Wbyy7wQKg9r4R0S8ydMBAKz5AO8cMJHj+ul2gFec0L+Qd/afpPv+IuJpng8AAIXBIC9MH8+t40eQr6VgKasgGOBvE0by3LRxFOj/s4h4nMY/t/MBPx0+iDMGFXPHpnL+UVZFUyjsdFtiQH4wwHlDB/KLEYPpn65veRERUAD4kgHpady413B+P2Yob1TVM7Omgdn1TWxs7yASdbo76Y2Az8eIzHQOL8zjuH4FnDCgULs/ioh0owCwG1l+P2cMKuaMQcUAdESibO3opCkUJoySgBsF8JEXDDAkI50MTe0XEdkjBYBeyvD7GJ2V4XQbIiIiRmhcVERExIMUAERERDxIAUBERMSDFABEREQ8SAFARETEgxQAREREPEgBQERExIMUAERERDxIAUBERMSDFABEREQ8SAFARETEgxQAREREPEgBQERExIMUAERERDxIAUBERMSD/EDYbpGOSNRAKyIi8YtG7f8e6jJQAwiZKCKSaH6g2W6R8o4uA62IiMQvYuDkXRm2fT0E0GSiiEii+THwzbqwscVAKyIicYpCKBSxVaIuHKY8ZOTiXQFAkoIf2Gy3yEuVtQZaERGJT2cobHsE4MO2NuxFiP+y/TtVpC/4gTV2i7xf28icett3EkRE4tLa1mnr+M5olMcaG0200gRsM1FIJNH8wDIThS5etZ7GkJH7ZyIiMWlqtRcA7qyvNzX8vxzQrGhJCn7gIxOF1rS0850la6nr0gRYEek7kUiUppaOuI6NAg83NPB8k7Hb9h+aKiSSaH5gEVBvotjHdU0cNX8Fb1UbKSci0qPaxjYicSxF3hIK8euqKh5uaDDZzvsmi4kkkm/7n/8EfmSy8D552ZzUv5B98nIYmB4kze/r+SARkRhEI7Bxaz3hSO+m79VHImwNhfikrY257e2EzKz736EGGALYux8h0kd2nJWPBd51shERkSR3D/Bzp5sQ6a0dAcAPrATGO9iLiEiyigL7Ap873YhIb+14FkAEuMXJRkREkthr6OQvSWbnG/NpWKMAYx3qRUQkGUWAQ4D5TjciEoudnwbYBVzsVCMiIknqH+jkL0ko0O2/S4G9t79ERGTPKoDTgTanGxGJ1a7W5hVi7Q0wuo97ERFJJhHgBGCm042IxMO/i7+rB85EiVZEZE+uRyd/SWJ72p3nJODfQLCPehERSRZPYG2epn3/JWl1nwOwszXAeuAUdj1SICLiRc8APwZTTw8WcUZPJ/YngW8BrX3Qi4iI290NnA3oqWeS9HpzZf8acBCwIsG9iIi4VTvwS+ASdOUvKWJPtwB2VoV1z2sQMJ09zx0QEUkli7DmRL3idCMiJsVyb78JOBc4CvgsMe2IiLhGLdYV/0HAEod7ETEu3it5H3Ay8DusLTBFRFLFNuB24D6sCx+RlGRiKH9v4IdYqwUmGqgnItLXqrHW9D+1/U9N8pOUZ/pe/hDgSGAyMAEoAXKxdhfcIQiMMPHJfD4f/fv3N1FKRAwJh8OEw+G4j29tbaWrq8tUOzVAw87lsa7qa7CWOq8BPgWWosl94jFOTObzYc0hmGai2JVXXsmkSZNMlBIRmyKRCKtWrSIUiu8COhwO8+ijj9Lc3GykHaxJy0tNFBNJNU5s8BMFbjBV7KWXXjJVSkRsqqqqivvkD7B06VJTJ3+A59DJX2S3nNrh70XgcxOF1q5dy8qVK02UEhEbIpEINTU1cR8fDodZsGCBsXaAP5kqJpKKnAoAGgUQSTG6+hdJLk7u8a9RAJEUEYlEqK6ujvt4Xf2L9D0nA4BGAURSRGVlpa2Z/7r6F+mmAZIxAAADMElEQVR7Tj/lT6MAIkkuHA7r3r9IEnI6AGgUQCTJVVVV6epfJAk5HQBAowAiScvu1X8oFNLVv4hD3BAANAogkqSqq6ttXf0vW7ZMV/8iDnFDAACNAogknXA4bGvmv67+RZzllgCgUQCRJGP33r+u/kWc5ZYAANYogJFnbq9du5alS/W7QCRRQqGQrXv/nZ2dzJ8/31Q7EQxeQIh4hZsCQBS43lSxJ598kpaWFlPlRGQndu/9z5o1y+TP53PAClPFRLwi4HQD3awCvgUMsluotbWV0tJSDjjgAILBoP3ORASwrv43bdpENBqN6/h58+axcOFCU+1EgDOBKlMFRbzCbQEArB/k75goVFNTw6JFixg1ahTFxcUmSop4XmVlZVz37ltbW3n33XdZvHixyXaeBe43WVDEK3xON7ALPmAxsI+xgj4fkydP5qCDDmL06NHk5+cTCLgx+4i4WygUYu3atb2++m9ra6O2tpZ169axevVqurq6TLYTAaai4X+RuLgxAACcATzvdBMi4mrPAGc53YRIsnJrAPABnwHTnG5ERFwpAkxHS/9E4uamVQA7M7oiQERSjtb9i9jk1hEAsHr7EDjK4T5ExF06sO79r3W6EZFk5tYRALBGAX4JxL/YWERS0S3o5C9im9unwpcDJcABTjciIq6wEfgeYHQ5gYgXufkWwA65wKfA3k43IiKO6gK+BsxyuhGRVODmWwA7NAOnAw1ONyIijroMnfxFjEmGAACwBvgBmg8g4lWPAvc43YRIKkmWAADwKtZIQIfTjYhIn3oKuMDpJkRSTTIFAIBXsB4W1OZ0IyLSJ+4DfgiEnG5EJNUkWwAAeBM4BljndCMikjAdWMuAf4a165+IGOb2ZYC7U4Z1T7AfsL/DvYiIWauAE4CXnW5EJJUlawAA6ARew3pmwD7AQGfbERGbGoCbgHOAzQ73IpLykmEfgN7wA2cDVwPjHO5FRGLThHWv/xag1uFeRDwjVQLAzvbHmjR0FjDA4V5EZNfCwAfAE8CLWPt9iEgfSsUAsEMQ64EhB21/TQKKgaLtfwada03EM+qBOqwr+43AAmDu9j8bHexLxPP+H2xuCMDAmlMaAAAAAElFTkSuQmCC;" parent="1" vertex="1">
          <mxGeometry x="360" y="390" width="170" height="170" as="geometry" />
        </mxCell>
        <mxCell id="mJ0sv33dfycD6wbY-UF9-1" value="&lt;font color=&quot;#FFFFFF&quot;&gt;&lt;b&gt;Input : Money&lt;/b&gt;&lt;/font&gt;" style="rounded=1;whiteSpace=wrap;html=1;fontSize=36;strokeWidth=2;fillColor=#006600;" vertex="1" parent="1">
          <mxGeometry x="590" y="400" width="330" height="50" as="geometry" />
        </mxCell>
        <mxCell id="mJ0sv33dfycD6wbY-UF9-2" value="" style="endArrow=classic;html=1;rounded=0;fontSize=36;fontColor=#FFFFFF;strokeWidth=2;exitX=0;exitY=0.5;exitDx=0;exitDy=0;" edge="1" parent="1" source="mJ0sv33dfycD6wbY-UF9-1">
          <mxGeometry width="50" height="50" relative="1" as="geometry">
            <mxPoint x="590" y="420" as="sourcePoint" />
            <mxPoint x="530" y="425" as="targetPoint" />
          </mxGeometry>
        </mxCell>
        <mxCell id="mJ0sv33dfycD6wbY-UF9-3" value="&lt;font style=&quot;font-size: 35px&quot;&gt;&lt;b&gt;Output : Chips&lt;/b&gt;&lt;/font&gt;" style="rounded=1;whiteSpace=wrap;html=1;fontSize=36;fontColor=#ffffff;strokeWidth=2;fillColor=#1ba1e2;strokeColor=#006EAF;" vertex="1" parent="1">
          <mxGeometry x="590" y="520" width="340" height="50" as="geometry" />
        </mxCell>
      </root>
    </mxGraphModel>
  </diagram>
</mxfile>
